<?xml version="1.0" encoding="UTF-8"?><svg id="SN_Core" xmlns="http://www.w3.org/2000/svg" viewBox="0 0 736.1232 736.1232"><defs><style>.cls-1{fill:#a1393e;fill-opacity:1;}</style></defs><g id="Engrenages"><path class="cls-1" d="M250.482,96.9258c3.2852,0,4.5215-1.353,5.1655-2.3706,1.1812-1.8657,1.7798-4.811,1.7798-8.7544,0-3.9087-.6011-6.814-1.7861-8.6362-1.021-1.5693-2.7344-2.3325-5.2373-2.3325-2.479,0-4.1807,.7583-5.2017,2.3179-1.1831,1.8076-1.7827,4.7178-1.7827,8.6509,0,3.915,.6099,6.8506,1.812,8.7246,.6611,1.0308,1.9233,2.4004,5.2505,2.4004Z"/><path class="cls-1" d="M365.8741,483.2178c0-62.8594-51.1401-114-114-114s-114,51.1406-114,114,51.1401,114,114,114,114-51.1406,114-114Zm-209.627-.4072c0-52.9346,43.0654-96,96-96s96,43.0654,96,96-43.0654,96-96,96-96-43.0654-96-96Z"/><path class="cls-1" d="M252.2471,423.3565c-32.7832,0-59.4546,26.6709-59.4546,59.4541s26.6714,59.4551,59.4546,59.4551,59.4546-26.6719,59.4546-59.4551-26.6714-59.4541-59.4546-59.4541Z"/><path class="cls-1" d="M465.5486,177.4246c0,28.4174,23.1193,51.5369,51.5369,51.5369s51.5369-23.1196,51.5369-51.5369-23.1193-51.5369-51.5369-51.5369-51.5369,23.1196-51.5369,51.5369Zm95.105-.1841c0,23.9306-19.4689,43.3995-43.3995,43.3995s-43.3995-19.4689-43.3995-43.3995,19.4689-43.3995,43.3995-43.3995,43.3995,19.4689,43.3995,43.3995Z"/><path class="cls-1" d="M340.4214,75.461c-1.0986-1.1855-2.5869-1.7617-4.5488-1.7617-1.9482,0-3.4028,.5674-4.4463,1.7354-.7739,.8652-1.3271,2.0317-1.6538,3.4834h12.231c-.2627-1.4458-.7915-2.604-1.582-3.457Z"/><path class="cls-1" d="M705.9938,0H30.1294C13.4894,0,0,13.4894,0,30.1294V705.9938c0,16.64,13.4894,30.1294,30.1294,30.1294H705.9938c16.64,0,30.1294-13.4894,30.1294-30.1294V30.1294c0-16.64-13.4894-30.1294-30.1294-30.1294ZM426.2178,161.2628c0-1.498,1.2145-2.7125,2.7125-2.7125h13.19c1.8951-7.5238,4.8893-14.615,8.8124-21.0856l-9.3824-9.3825c-.5086-.5085-.7944-1.1986-.7944-1.9178s.2858-1.4094,.7944-1.918l22.6964-22.6962c1.0596-1.0591,2.7765-1.0591,3.8361,0l9.4736,9.4736c6.4524-3.8558,13.5096-6.7938,20.994-8.6429v-13.4506c0-1.498,1.2145-2.7125,2.7125-2.7125h32.0975c1.498,0,2.7125,1.2145,2.7125,2.7125v13.5552c7.4272,1.8828,14.4287,4.8417,20.8288,8.7035l9.6388-9.6387c1.0596-1.0591,2.7765-1.0591,3.8361,0l22.6962,22.6962c.509,.5086,.7947,1.1986,.7947,1.918s-.2856,1.4092-.7947,1.9178l-9.6692,9.6694c3.8395,6.394,6.7798,13.3845,8.6473,20.7987h13.6421c1.4979,0,2.7125,1.2145,2.7125,2.7125v32.0975c0,1.4979-1.2145,2.7125-2.7125,2.7125h-13.5898c-1.8508,7.4427-4.7805,14.4611-8.6171,20.8812l9.5866,9.5868c.509,.5086,.7947,1.1987,.7947,1.9178,0,.7196-.2856,1.4092-.7947,1.9178l-22.6962,22.6962c-.5298,.5298-1.2238,.7947-1.918,.7947s-1.3882-.2649-1.918-.7947l-9.4952-9.4952c-6.4384,3.9036-13.4903,6.8895-20.9724,8.7862v13.3292c0,1.4979-1.2145,2.7125-2.7125,2.7125h-32.0975c-1.498,0-2.7125-1.2145-2.7125-2.7125v-13.2246c-7.5394-1.8628-14.6467-4.828-21.1375-8.7256l-9.3301,9.33c-.5298,.5298-1.2238,.7947-1.918,.7947s-1.3882-.2649-1.918-.7947l-22.6964-22.6962c-.5086-.5086-.7944-1.1982-.7944-1.9178,0-.7192,.2858-1.4092,.7944-1.9178l9.2999-9.2999c-3.9201-6.4968-6.9041-13.6156-8.7822-21.1681h-13.1377c-1.4979,0-2.7125-1.2145-2.7125-2.7125v-32.0975Zm-107.0747-93.3941c4.0361-4.4102,9.6387-6.646,16.6514-6.646,6.7017,0,12.0322,1.9766,15.8442,5.875,3.7993,3.8862,5.7261,9.2588,5.7261,15.9688v7.7812h-27.9458c.3457,1.8818,1.0771,3.3735,2.2134,4.5249,1.4971,1.5186,3.6123,2.2563,6.4668,2.2563,2.4653,0,4.8223-.2583,7.0063-.7681,2.1973-.5127,4.5347-1.3472,6.9487-2.48l2.8496-1.3374v13.6025l-1.1055,.5532c-2.2236,1.1118-4.6313,1.9497-7.1553,2.4907-2.4966,.5352-5.5552,.8062-9.0908,.8062-7.5415,0-13.5586-2.1509-17.8848-6.3921-4.3374-4.251-6.5371-10.2778-6.5371-17.9126,0-7.7988,2.0229-13.9634,6.0127-18.3228Zm-39.6846-5.8257h12.6011l1.2383,5.1733c1.1348-1.3179,2.4473-2.4634,3.9263-3.4243,2.6245-1.7051,5.521-2.5693,8.6094-2.5693,1.7749,0,3.231,.1304,4.4521,.3979l1.7046,.374-1.231,15.3081-2.3213-.6255c-.792-.2134-1.7998-.3218-2.9951-.3218-3.2671,0-5.8013,.8081-7.5322,2.4014-1.708,1.5713-2.5381,3.7729-2.5381,6.7314v24.2266h-15.9141V62.043Zm-46.0581,5.7466c4.0996-4.3574,9.8726-6.5669,17.1597-6.5669,4.5229,0,8.5884,1.0078,12.0825,2.9961,3.5371,2.0132,6.2891,4.937,8.1802,8.6899,1.8525,3.6782,2.792,8.0156,2.792,12.8921,0,7.6006-2.0737,13.6724-6.1641,18.0459-4.1255,4.4121-9.8872,6.6494-17.125,6.6494-4.5264,0-8.5938-1.0156-12.0884-3.0186-3.5356-2.0269-6.2871-4.9712-8.1772-8.751-1.8506-3.7017-2.7891-8.0508-2.7891-12.9258,0-7.6284,2.062-13.688,6.1294-18.0112Zm-52.6094-5.0283c2.3262-4.8066,5.7256-8.5503,10.1025-11.1255,4.3413-2.5552,9.4731-3.8506,15.2524-3.8506,5.8203,0,11.7358,1.4199,17.5825,4.2197l1.6836,.8062-5.3828,13.5649-1.9297-.9175c-2.0562-.9775-4.1577-1.8438-6.2466-2.5747-1.9395-.6768-3.8599-1.0205-5.707-1.0205-3.9155,0-6.8501,1.4116-8.9707,4.3159-2.2329,3.0591-3.3652,7.479-3.3652,13.1372,0,15.3286,7.0405,17.1016,12.3359,17.1016,3.7671,0,8.4458-.9736,13.9067-2.8945l2.6636-.937v14.3135l-1.231,.5127c-4.9106,2.0459-10.4526,3.0835-16.4722,3.0835-8.8721,0-15.7925-2.7734-20.5688-8.2432-4.708-5.3901-7.0952-13.1333-7.0952-23.0146,0-6.2148,1.1582-11.7583,3.4419-16.4771Zm-81.6838-13.7147h17.1291l23.4408,40.4218c-.2623-5.4611-.3952-9.4998-.3952-12.0348v-28.387h13.1658v59.8522h-17.2501l-23.5129-40.8887c.3384,5.7076,.5093,9.9563,.5093,12.6596v28.2291h-13.0869V49.0466Zm-48.0676,43.0646l1.5165,.6764c3.822,1.7046,7.0928,2.9199,9.7217,3.6123,2.5941,.6835,4.9911,1.03,7.1249,1.03,2.4413,0,4.3085-.4501,5.5495-1.3378,1.1437-.8188,1.6998-2.0298,1.6998-3.7015,0-.9088-.2439-1.6909-.7456-2.3913-.5522-.7709-1.3947-1.537-2.5039-2.2766-1.1755-.783-3.6465-2.0719-7.3435-3.8304-3.5944-1.6896-6.3464-3.3502-8.1749-4.9338-1.8588-1.6085-3.3642-3.5081-4.4736-5.6458-1.1279-2.1711-1.6999-4.7281-1.6999-7.6,0-5.4127,1.8748-9.7396,5.5724-12.8601,3.6428-3.0754,8.7029-4.6347,15.0401-4.6347,3.0775,0,6.0568,.3702,8.8553,1.1005,2.7589,.7195,5.6863,1.7467,8.7009,3.0532l.9734,.4218-4.7644,11.4823-.9932-.4076c-3.0148-1.2368-5.5339-2.11-7.4869-2.5952-1.9206-.4764-3.8317-.718-5.6797-.718-2.0363,0-3.5905,.4551-4.6191,1.3525-.9998,.8719-1.4857,1.9877-1.4857,3.4105,0,.8817,.1921,1.6183,.587,2.2521,.418,.672,1.1187,1.3478,2.0824,2.0093,1.04,.7148,3.6002,2.0474,7.6095,3.9614,5.6011,2.6783,9.3555,5.3177,11.4784,8.0692,2.1392,2.773,3.2237,6.2012,3.2237,10.1887,0,5.5284-2.028,9.954-6.0278,13.1542-3.928,3.1422-9.4194,4.7352-16.3212,4.7352-6.293,0-11.9493-1.2053-16.8116-3.5823l-.6043-.2955v-13.6991Zm402.8345,426.3567c0,3.3135-2.6865,6-6,6h-30.0417c-4.0942,16.4671-10.5796,31.9971-19.0681,46.2012l21.1938,21.1943c1.126,1.125,1.7578,2.6514,1.7578,4.2422,0,1.5918-.6318,3.1172-1.7578,4.2422l-50.2041,50.2041c-1.1719,1.1719-2.707,1.7578-4.2427,1.7578s-3.0708-.5859-4.2427-1.7578l-21.0015-21.0013c-14.2427,8.6355-29.8414,15.2466-46.3931,19.4421v29.4752c0,3.3135-2.6865,6-6,6h-71c-3.3135,0-6-2.6865-6-6v-29.2307c-16.6807-4.1205-32.4044-10.6914-46.7648-19.3148l-20.6297,20.6295c-1.1719,1.1719-2.707,1.7578-4.2427,1.7578s-3.0708-.5859-4.2427-1.7578l-50.2046-50.2041c-1.125-1.125-1.7573-2.6504-1.7573-4.2422,0-1.5908,.6323-3.1172,1.7573-4.2422l20.566-20.5662c-8.6729-14.3732-15.2854-30.1201-19.4398-46.8293h-29.0417c-3.3135,0-6-2.6865-6-6v-71c0-3.3135,2.6865-6,6-6h29.1641c4.1921-16.6445,10.8244-32.3291,19.5034-46.6434l-20.7519-20.7521c-1.125-1.125-1.7573-2.6514-1.7573-4.2422s.6323-3.1177,1.7573-4.2427l50.2046-50.2041c2.3438-2.3428,6.1416-2.3428,8.4854,0l20.9441,20.9439c14.2757-8.5312,29.891-15.0382,46.4504-19.1288v-29.7307c0-3.3135,2.6865-6,6-6h71c3.3135,0,6,2.6865,6,6v29.9752c16.4307,4.1647,31.9203,10.7129,46.0786,19.256l21.3159-21.3157c2.3438-2.3428,6.1416-2.3428,8.4854,0l50.2041,50.2041c1.126,1.125,1.7578,2.6514,1.7578,4.2427s-.6318,3.1172-1.7578,4.2422l-21.3798,21.3801c8.4944,14.1454,15.0005,29.6126,19.1317,46.0154h30.1641c3.3135,0,6,2.6865,6,6v71Zm252.6875-101.5815c0,2.2092-1.7911,4.0004-4.0003,4.0004h-20.0294c-2.7297,10.9789-7.0536,21.3331-12.713,30.8032l14.1303,14.1306c.7507,.7501,1.1719,1.7678,1.1719,2.8284,0,1.0613-.4212,2.0783-1.1719,2.8284l-33.472,33.472c-.7813,.7813-1.8049,1.1719-2.8287,1.1719s-2.0474-.3906-2.8287-1.1719l-14.0021-14.002c-9.4959,5.7574-19.8958,10.1652-30.9311,12.9623v19.6517c0,2.2091-1.7911,4.0003-4.0003,4.0003h-47.337c-2.2092,0-4.0003-1.7912-4.0003-4.0003v-19.4886c-11.1213-2.7472-21.6046-7.1281-31.179-12.8775l-13.7542,13.754c-.7813,.7813-1.8048,1.1719-2.8287,1.1719s-2.0474-.3906-2.8287-1.1719l-33.4723-33.472c-.7501-.7501-1.1716-1.7671-1.1716-2.8284,0-1.0606,.4216-2.0783,1.1716-2.8284l13.7117-13.7119c-5.7823-9.5829-10.1909-20.0817-12.9608-31.2219h-19.3627c-2.2092,0-4.0003-1.7912-4.0003-4.0004v-47.337c0-2.2092,1.7911-4.0003,4.0003-4.0003h19.4442c2.795-11.0972,7.2168-21.5544,13.0032-31.098l-13.8356-13.8358c-.7501-.7501-1.1716-1.7677-1.1716-2.8283s.4216-2.0786,1.1716-2.8287l33.4723-33.472c1.5626-1.562,4.0947-1.562,5.6573,0l13.9638,13.9637c9.5178-5.6879,19.9289-10.0262,30.9694-12.7535v-19.822c0-2.2092,1.7911-4.0003,4.0003-4.0003h47.337c2.2092,0,4.0003,1.7911,4.0003,4.0003v19.985c10.9547,2.7767,21.2818,7.1424,30.7214,12.8383l14.2117-14.2115c1.5626-1.562,4.0947-1.562,5.6573,0l33.472,33.472c.7507,.7501,1.1719,1.7677,1.1719,2.8287s-.4212,2.0782-1.1719,2.8283l-14.2543,14.2546c5.6634,9.431,10.001,19.7432,12.7554,30.6793h20.111c2.2092,0,4.0003,1.7911,4.0003,4.0003v47.337Z"/><path class="cls-1" d="M572.1332,353.4739c-21.8572,0-39.6395,17.782-39.6395,39.6391s17.7823,39.6398,39.6395,39.6398,39.6395-17.7827,39.6395-39.6398-17.7823-39.6391-39.6395-39.6391Z"/><path class="cls-1" d="M647.8904,393.3845c0-41.9095-34.0961-76.0059-76.0059-76.0059s-76.0059,34.0964-76.0059,76.0059,34.0961,76.0059,76.0059,76.0059,76.0059-34.0964,76.0059-76.0059Zm-139.7621-.2715c0-35.2924,28.7125-64.0049,64.0049-64.0049s64.005,28.7125,64.005,64.0049-28.7125,64.005-64.005,64.005-64.0049-28.7125-64.0049-64.005Z"/><path class="cls-1" d="M517.2542,204.1188c14.8206,0,26.8781-12.0578,26.8781-26.8784s-12.0576-26.8779-26.8781-26.8779-26.8781,12.0573-26.8781,26.8779,12.0575,26.8784,26.8781,26.8784Z"/></g></svg>